<svg viewBox="0 0 32 32" xmlns="http://www.w3.org/2000/svg">
  <defs>
    <linearGradient id="copperGrad" x1="0%" y1="0%" x2="100%" y2="100%">
      <stop offset="0%" style="stop-color:#D4956A"/>
      <stop offset="100%" style="stop-color:#B87333"/>
    </linearGradient>
    <filter id="glow">
      <feGaussianBlur stdDeviation="0.5" result="coloredBlur"/>
      <feMerge>
        <feMergeNode in="coloredBlur"/>
        <feMergeNode in="SourceGraphic"/>
      </feMerge>
    </filter>
  </defs>
  <rect width="32" height="32" rx="6" fill="#0C0A09"/>
  <!-- Gear teeth outer -->
  <g transform="translate(16,16)">
    <path d="M0,-10 L2,-10 L2.5,-7 L4,-7.5 L5.5,-9.5 L7,-8 L5.5,-6 L6.5,-4.5 L9.5,-5 L10,-3 L7.5,-2 L7.5,0 L10,0 L10,2 L7.5,2 L7.5,4 L9.5,5 L9,7 L6.5,5.5 L5,7 L6.5,9 L5,10 L3.5,7.5 L2,8 L2,10 L0,10 L0,7.5 L-2,8 L-2.5,10 L-4.5,9.5 L-3.5,7 L-5.5,6 L-7,8 L-8.5,6.5 L-6.5,4.5 L-7.5,2.5 L-10,3 L-10,0 L-7.5,0 L-7.5,-2 L-10,-2.5 L-9.5,-4.5 L-6.5,-4 L-5.5,-6 L-7,-8 L-5,-9.5 L-3.5,-7 L-2,-7.5 L-2,-10 Z"
          fill="url(#copperGrad)"/>
  </g>
  <!-- Inner circle -->
  <circle cx="16" cy="16" r="4" fill="#0C0A09"/>
  <!-- Center dot -->
  <circle cx="16" cy="16" r="2" fill="#FCD34D" opacity="0.9" filter="url(#glow)"/>
  <!-- Connection dots -->
  <circle cx="6" cy="6" r="2" fill="url(#copperGrad)" opacity="0.7"/>
  <circle cx="26" cy="6" r="2" fill="url(#copperGrad)" opacity="0.7"/>
  <circle cx="26" cy="26" r="2" fill="url(#copperGrad)" opacity="0.7"/>
</svg>
